<svg width="201" height="201" viewBox="0 0 201 201" fill="none" xmlns="http://www.w3.org/2000/svg">
<g clip-path="url(#clip0_11_9751)">
<rect width="201" height="201" fill="#0F0E0E"/>
<path d="M35.2548 91.1764L18.6555 102.855L21.4887 112.113L5.10041 123.643L-11.7185 61.0285L6.28749 48.3601L59.4701 85.3907L43.0115 96.9703L35.2548 91.1764ZM23.1925 82.1025L8.94228 71.4134L14.1895 88.4367L23.1925 82.1025ZM82.8472 69.6795C76.8921 73.8693 70.9953 75.95 65.157 75.9217C59.3325 75.8135 54.3592 73.1786 50.237 68.0171L66.8363 56.3385C69.0832 59.0339 71.3555 59.5733 73.6531 57.9567C74.4971 57.3629 75.0685 56.6805 75.3673 55.9095C75.68 55.0586 75.5394 54.2111 74.9456 53.3671C74.1208 52.1948 72.828 51.7024 71.0671 51.8898C69.2732 52.0303 66.7099 52.5718 63.3773 53.5145C59.397 54.6325 55.9724 55.3945 53.1035 55.8006C50.2816 56.1737 47.3945 55.8565 44.4424 54.849C41.4904 53.8415 38.8996 51.7035 36.6701 48.4351C34.3938 45.1996 33.2844 41.8792 33.342 38.4738C33.4136 34.9885 34.4671 31.6535 36.5027 28.4688C38.5851 25.2511 41.4317 22.3721 45.0422 19.8319C51.138 15.5431 56.9575 13.5518 62.5006 13.8579C68.0906 14.1311 72.7774 16.7572 76.5609 21.7364L59.7506 33.5635C58.714 32.1898 57.653 31.429 56.5677 31.2813C55.4824 31.1336 54.4708 31.3897 53.533 32.0495C52.8765 32.5113 52.5022 33.1252 52.4101 33.891C52.285 34.6099 52.5029 35.368 53.0637 36.1651C53.8555 37.2905 55.1249 37.7994 56.8719 37.6919C58.6328 37.5045 61.236 36.9699 64.6814 36.0881C68.6478 35.05 72.0186 34.3609 74.7937 34.0207C77.6157 33.6476 80.4532 33.8945 83.3063 34.7613C86.1594 35.6281 88.6087 37.5152 90.6541 40.4224C92.7985 43.4703 93.9782 46.7412 94.1932 50.2352C94.3752 53.6824 93.5144 57.0921 91.6108 60.4643C89.7072 63.8366 86.786 66.9083 82.8472 69.6795ZM133.615 21.9736L117.016 33.6522L119.849 42.9102L103.461 54.4404L86.642 -8.17435L104.648 -20.8427L157.831 16.1878L141.372 27.7675L133.615 21.9736ZM121.553 12.8997L107.303 2.21058L112.55 19.2339L121.553 12.8997ZM44.4251 97.3355L53.1346 109.715L33.5812 123.472L38.4308 130.365L52.498 120.467L60.7621 132.214L46.6949 142.111L59.9076 160.89L44.293 171.876L9.25708 122.078L44.4251 97.3355ZM74.0876 95.078L78.3929 101.197L93.8668 90.3103L102.131 102.056L86.657 112.943L91.6056 119.977L109.19 107.605L117.949 120.055L84.75 143.412L49.714 93.6144L82.9126 70.257L91.6716 82.7065L74.0876 95.078ZM113.171 67.5805L117.476 73.6997L132.95 62.8128L141.214 74.5589L125.74 85.4458L130.689 92.4794L148.273 80.108L157.032 92.5574L123.833 115.915L88.7972 66.1169L121.996 42.7596L130.755 55.209L113.171 67.5805ZM99.7983 209.368C93.8432 213.558 87.9465 215.639 82.1081 215.611C76.2837 215.502 71.3103 212.868 67.1882 207.706L83.7875 196.027C86.0344 198.723 88.3066 199.262 90.6043 197.646C91.4483 197.052 92.0197 196.369 92.3185 195.598C92.6311 194.747 92.4906 193.9 91.8967 193.056C91.072 191.884 89.7791 191.391 88.0182 191.579C86.2243 191.719 83.6611 192.261 80.3285 193.203C76.3482 194.321 72.9236 195.083 70.0547 195.489C67.2327 195.863 64.3457 195.545 61.3936 194.538C58.4415 193.53 55.8508 191.392 53.6213 188.124C51.3449 184.889 50.2356 181.568 50.2932 178.163C50.3647 174.677 51.4183 171.342 53.4539 168.158C55.5363 164.94 58.3828 162.061 61.9934 159.521C68.0892 155.232 73.9087 153.241 79.4518 153.547C85.0418 153.82 89.7286 156.446 93.5121 161.425L76.7018 173.252C75.6652 171.879 74.6042 171.118 73.5189 170.97C72.4335 170.822 71.4219 171.079 70.4841 171.738C69.8277 172.2 69.4534 172.814 69.3613 173.58C69.2362 174.299 69.454 175.057 70.0149 175.854C70.8066 176.979 72.076 177.488 73.823 177.381C75.5839 177.193 78.1871 176.659 81.6326 175.777C85.599 174.739 88.9698 174.05 91.7448 173.71C94.5668 173.337 97.4044 173.583 100.257 174.45C103.111 175.317 105.56 177.204 107.605 180.111C109.75 183.159 110.929 186.43 111.144 189.924C111.326 193.371 110.466 196.781 108.562 200.153C106.658 203.525 103.737 206.597 99.7983 209.368ZM148.541 175.075C143.852 178.374 138.763 180.307 133.274 180.874C127.831 181.409 122.592 180.538 117.556 178.263C112.52 175.987 108.287 172.411 104.856 167.535C101.425 162.658 99.4889 157.466 99.0483 151.957C98.6078 146.449 99.5746 141.247 101.949 136.352C104.337 131.377 107.876 127.239 112.565 123.94C117.254 120.641 122.32 118.725 127.762 118.19C133.172 117.609 138.371 118.473 143.36 120.781C148.396 123.056 152.629 126.632 156.06 131.509C159.491 136.386 161.427 141.578 161.868 147.087C162.355 152.562 161.405 157.787 159.017 162.762C156.675 167.705 153.183 171.809 148.541 175.075ZM138.298 160.515C141.392 158.338 143.091 155.671 143.393 152.513C143.663 149.31 142.61 146.019 140.235 142.643C137.826 139.22 135.085 137.118 132.012 136.336C128.905 135.508 125.804 136.182 122.71 138.359C119.568 140.57 117.862 143.277 117.593 146.481C117.29 149.638 118.343 152.928 120.752 156.351C123.127 159.727 125.868 161.829 128.975 162.658C132.048 163.44 135.156 162.726 138.298 160.515ZM227.118 119.055L211.503 130.041L177.357 116.63L194.974 141.67L179.36 152.656L144.324 102.858L159.938 91.8721L194.381 105.705L176.467 80.243L192.082 69.2571L227.118 119.055Z" fill="#F0FF00"/>
<path d="M147.02 53.16C146.327 53.16 145.767 52.9733 145.34 52.6C144.927 52.2133 144.72 51.7267 144.72 51.14C144.72 50.5533 144.927 50.0667 145.34 49.68C145.767 49.2933 146.327 49.1 147.02 49.1C147.7 49.1 148.247 49.2933 148.66 49.68C149.087 50.0667 149.3 50.5533 149.3 51.14C149.3 51.7133 149.087 52.1933 148.66 52.58C148.247 52.9667 147.7 53.16 147.02 53.16ZM156.716 38.9C158.196 38.9 159.489 39.2 160.596 39.8C161.716 40.3867 162.576 41.2133 163.176 42.28C163.776 43.3467 164.076 44.5667 164.076 45.94C164.076 47.3 163.769 48.5133 163.156 49.58C162.556 50.6467 161.696 51.4867 160.576 52.1C159.469 52.7 158.182 53 156.716 53H151.136V38.9H156.716ZM156.416 49.54C157.562 49.54 158.462 49.2267 159.116 48.6C159.769 47.9733 160.096 47.0867 160.096 45.94C160.096 44.78 159.769 43.8867 159.116 43.26C158.462 42.62 157.562 42.3 156.416 42.3H155.056V49.54H156.416ZM169.763 42.04V44.34H174.263V47.32H169.763V49.86H174.863V53H165.843V38.9H174.863V42.04H169.763ZM190.52 38.9L185.66 53H180.64L175.76 38.9H179.96L183.16 49.08L186.34 38.9H190.52Z" fill="#F0FF00"/>
</g>
<defs>
<clipPath id="clip0_11_9751">
<rect width="201" height="201" fill="white"/>
</clipPath>
</defs>
</svg>
